<svg width="41" height="41" viewBox="0 0 41 41" fill="none" xmlns="http://www.w3.org/2000/svg">
<rect width="40.4" height="40.4" rx="20.2" fill="#EC3542"/>
<path d="M11.686 27.2192C10.777 27.2192 9.91044 27.0737 9.08628 26.7829C8.26212 26.4799 7.60764 26.0799 7.12284 25.583L7.75914 24.5467C8.1591 24.9709 8.7045 25.3224 9.39534 25.6012C10.0983 25.8799 10.8558 26.0193 11.6678 26.0193C12.7465 26.0193 13.5646 25.783 14.1221 25.3103C14.6918 24.8255 14.9766 24.1952 14.9766 23.4196C14.9766 22.8742 14.8433 22.4075 14.5766 22.0197C14.3221 21.6197 13.8858 21.3107 13.2677 21.0925C12.6496 20.8744 11.8012 20.7653 10.7225 20.7653H8.01366L8.66814 14.3841H15.6311V15.5476H9.19536L9.86802 14.9113L9.30444 20.2562L8.63178 19.6018H11.0134C12.2981 19.6018 13.3283 19.7593 14.104 20.0744C14.8796 20.3896 15.4372 20.8319 15.7765 21.4016C16.128 21.9591 16.3037 22.6136 16.3037 23.365C16.3037 24.0801 16.1341 24.7346 15.7947 25.3285C15.4553 25.9102 14.9463 26.3708 14.2676 26.7101C13.5889 27.0495 12.7283 27.2192 11.686 27.2192ZM16.5656 28.9281L22.565 11.8025H23.7467L17.7473 28.9281H16.5656ZM28.0729 27.2192C27.1639 27.2192 26.2973 27.0737 25.4731 26.7829C24.649 26.4799 23.9945 26.0799 23.5097 25.583L24.146 24.5467C24.546 24.9709 25.0914 25.3224 25.7822 25.6012C26.4852 25.8799 27.2427 26.0193 28.0547 26.0193C29.1334 26.0193 29.9515 25.783 30.509 25.3103C31.0786 24.8255 31.3635 24.1952 31.3635 23.4196C31.3635 22.8742 31.2301 22.4075 30.9635 22.0197C30.709 21.6197 30.2727 21.3107 29.6545 21.0925C29.0364 20.8744 28.188 20.7653 27.1093 20.7653H24.4005L25.055 14.3841H32.0179V15.5476H25.5822L26.2549 14.9113L25.6913 20.2562L25.0186 19.6018H27.4002C28.6849 19.6018 29.7151 19.7593 30.4908 20.0744C31.2665 20.3896 31.824 20.8319 32.1634 21.4016C32.5149 21.9591 32.6906 22.6136 32.6906 23.365C32.6906 24.0801 32.5209 24.7346 32.1816 25.3285C31.8422 25.9102 31.3332 26.3708 30.6544 26.7101C29.9757 27.0495 29.1152 27.2192 28.0729 27.2192Z" fill="white"/>
</svg>
