<svg width="29" height="29" viewBox="0 0 29 29" fill="none" xmlns="http://www.w3.org/2000/svg">
<g filter="url(#filter0_d_1_2521)">
<path d="M6.16683 20.8337C5.59391 20.8337 5.10329 20.6295 4.69496 20.2212C4.28662 19.8128 4.0828 19.3225 4.0835 18.7503V6.25033C4.0835 5.67741 4.28766 5.18679 4.696 4.77845C5.10433 4.37012 5.59461 4.1663 6.16683 4.16699H22.8335C23.4064 4.16699 23.897 4.37116 24.3054 4.77949C24.7137 5.18783 24.9175 5.6781 24.9168 6.25033V18.7503C24.9168 19.3232 24.7127 19.8139 24.3043 20.2222C23.896 20.6305 23.4057 20.8344 22.8335 20.8337H6.16683ZM14.5002 13.3597C14.587 13.3597 14.6783 13.3465 14.7741 13.3201C14.87 13.2937 14.9609 13.2548 15.047 13.2035L22.4168 8.59408C22.5557 8.50727 22.6599 8.39859 22.7293 8.26804C22.7988 8.13748 22.8335 7.99442 22.8335 7.83887C22.8335 7.49165 22.6859 7.23123 22.3908 7.05762C22.0957 6.88401 21.7918 6.89269 21.4793 7.08366L14.5002 11.4587L7.521 7.08366C7.2085 6.89269 6.90468 6.88852 6.60954 7.07116C6.3144 7.2538 6.16683 7.5097 6.16683 7.83887C6.16683 8.01248 6.20155 8.16456 6.271 8.29512C6.34044 8.42567 6.44461 8.52533 6.5835 8.59408L13.9533 13.2035C14.0401 13.2555 14.1314 13.2948 14.2272 13.3212C14.3231 13.3475 14.4141 13.3604 14.5002 13.3597Z" fill="white"/>
</g>
<defs>
<filter id="filter0_d_1_2521" x="-2" y="0" width="33" height="33" filterUnits="userSpaceOnUse" color-interpolation-filters="sRGB">
<feFlood flood-opacity="0" result="BackgroundImageFix"/>
<feColorMatrix in="SourceAlpha" type="matrix" values="0 0 0 0 0 0 0 0 0 0 0 0 0 0 0 0 0 0 127 0" result="hardAlpha"/>
<feOffset dy="4"/>
<feGaussianBlur stdDeviation="2"/>
<feComposite in2="hardAlpha" operator="out"/>
<feColorMatrix type="matrix" values="0 0 0 0 0 0 0 0 0 0 0 0 0 0 0 0 0 0 0.25 0"/>
<feBlend mode="normal" in2="BackgroundImageFix" result="effect1_dropShadow_1_2521"/>
<feBlend mode="normal" in="SourceGraphic" in2="effect1_dropShadow_1_2521" result="shape"/>
</filter>
</defs>
</svg>
