<svg width="25" height="25" viewBox="0 0 25 25" fill="none" xmlns="http://www.w3.org/2000/svg">
<path d="M12.5002 11.9788C11.8095 11.9788 11.1471 11.7045 10.6587 11.2161C10.1704 10.7277 9.896 10.0653 9.896 9.37467C9.896 8.68401 10.1704 8.02163 10.6587 7.53325C11.1471 7.04487 11.8095 6.77051 12.5002 6.77051C13.1908 6.77051 13.8532 7.04487 14.3416 7.53325C14.83 8.02163 15.1043 8.68401 15.1043 9.37467C15.1043 9.71666 15.037 10.0553 14.9061 10.3712C14.7752 10.6872 14.5834 10.9743 14.3416 11.2161C14.0998 11.4579 13.8127 11.6497 13.4967 11.7806C13.1808 11.9115 12.8421 11.9788 12.5002 11.9788ZM12.5002 2.08301C10.5663 2.08301 8.71163 2.85123 7.34418 4.21869C5.97672 5.58614 5.2085 7.4408 5.2085 9.37467C5.2085 14.8434 12.5002 22.9163 12.5002 22.9163C12.5002 22.9163 19.7918 14.8434 19.7918 9.37467C19.7918 7.4408 19.0236 5.58614 17.6561 4.21869C16.2887 2.85123 14.434 2.08301 12.5002 2.08301Z" fill="white"/>
</svg>
