<svg width="29" height="31" viewBox="0 0 29 31" fill="none" xmlns="http://www.w3.org/2000/svg">
<g filter="url(#filter0_d_1_2525)">
<path d="M14.4897 2.08301C8.73975 2.08301 4.0835 6.74967 4.0835 12.4997C4.0835 18.2497 8.73975 22.9163 14.4897 22.9163C20.2502 22.9163 24.9168 18.2497 24.9168 12.4997C24.9168 6.74967 20.2502 2.08301 14.4897 2.08301ZM14.5002 20.833C9.896 20.833 6.16683 17.1038 6.16683 12.4997C6.16683 7.89551 9.896 4.16634 14.5002 4.16634C19.1043 4.16634 22.8335 7.89551 22.8335 12.4997C22.8335 17.1038 19.1043 20.833 14.5002 20.833ZM15.021 7.29134H13.4585V13.5413L18.9272 16.8226L19.7085 15.5413L15.021 12.7601V7.29134Z" fill="white"/>
</g>
<defs>
<filter id="filter0_d_1_2525" x="-2" y="0" width="33" height="33" filterUnits="userSpaceOnUse" color-interpolation-filters="sRGB">
<feFlood flood-opacity="0" result="BackgroundImageFix"/>
<feColorMatrix in="SourceAlpha" type="matrix" values="0 0 0 0 0 0 0 0 0 0 0 0 0 0 0 0 0 0 127 0" result="hardAlpha"/>
<feOffset dy="4"/>
<feGaussianBlur stdDeviation="2"/>
<feComposite in2="hardAlpha" operator="out"/>
<feColorMatrix type="matrix" values="0 0 0 0 0 0 0 0 0 0 0 0 0 0 0 0 0 0 0.25 0"/>
<feBlend mode="normal" in2="BackgroundImageFix" result="effect1_dropShadow_1_2525"/>
<feBlend mode="normal" in="SourceGraphic" in2="effect1_dropShadow_1_2525" result="shape"/>
</filter>
</defs>
</svg>
