<svg width="35" height="36" viewBox="0 0 35 36" fill="none" xmlns="http://www.w3.org/2000/svg">
<path d="M7.29167 32.5834C6.48958 32.5834 5.80271 32.2981 5.23104 31.7274C4.66035 31.1557 4.375 30.4688 4.375 29.6667V9.25008C4.375 8.448 4.66035 7.76161 5.23104 7.19091C5.80271 6.61925 6.48958 6.33341 7.29167 6.33341H8.75V3.41675H11.6667V6.33341H23.3333V3.41675H26.25V6.33341H27.7083C28.5104 6.33341 29.1973 6.61925 29.769 7.19091C30.3397 7.76161 30.625 8.448 30.625 9.25008V29.6667C30.625 30.4688 30.3397 31.1557 29.769 31.7274C29.1973 32.2981 28.5104 32.5834 27.7083 32.5834H7.29167ZM7.29167 29.6667H27.7083V15.0834H7.29167V29.6667ZM7.29167 12.1667H27.7083V9.25008H7.29167V12.1667ZM17.5 20.9167C17.0868 20.9167 16.7407 20.7767 16.4617 20.4967C16.1817 20.2177 16.0417 19.8716 16.0417 19.4584C16.0417 19.0452 16.1817 18.6986 16.4617 18.4186C16.7407 18.1396 17.0868 18.0001 17.5 18.0001C17.9132 18.0001 18.2598 18.1396 18.5398 18.4186C18.8188 18.6986 18.9583 19.0452 18.9583 19.4584C18.9583 19.8716 18.8188 20.2177 18.5398 20.4967C18.2598 20.7767 17.9132 20.9167 17.5 20.9167ZM11.6667 20.9167C11.2535 20.9167 10.9069 20.7767 10.6269 20.4967C10.3478 20.2177 10.2083 19.8716 10.2083 19.4584C10.2083 19.0452 10.3478 18.6986 10.6269 18.4186C10.9069 18.1396 11.2535 18.0001 11.6667 18.0001C12.0799 18.0001 12.4265 18.1396 12.7065 18.4186C12.9855 18.6986 13.125 19.0452 13.125 19.4584C13.125 19.8716 12.9855 20.2177 12.7065 20.4967C12.4265 20.7767 12.0799 20.9167 11.6667 20.9167ZM23.3333 20.9167C22.9201 20.9167 22.574 20.7767 22.295 20.4967C22.015 20.2177 21.875 19.8716 21.875 19.4584C21.875 19.0452 22.015 18.6986 22.295 18.4186C22.574 18.1396 22.9201 18.0001 23.3333 18.0001C23.7465 18.0001 24.0926 18.1396 24.3717 18.4186C24.6517 18.6986 24.7917 19.0452 24.7917 19.4584C24.7917 19.8716 24.6517 20.2177 24.3717 20.4967C24.0926 20.7767 23.7465 20.9167 23.3333 20.9167ZM17.5 26.7501C17.0868 26.7501 16.7407 26.6101 16.4617 26.3301C16.1817 26.0511 16.0417 25.7049 16.0417 25.2917C16.0417 24.8786 16.1817 24.5324 16.4617 24.2534C16.7407 23.9734 17.0868 23.8334 17.5 23.8334C17.9132 23.8334 18.2598 23.9734 18.5398 24.2534C18.8188 24.5324 18.9583 24.8786 18.9583 25.2917C18.9583 25.7049 18.8188 26.0511 18.5398 26.3301C18.2598 26.6101 17.9132 26.7501 17.5 26.7501ZM11.6667 26.7501C11.2535 26.7501 10.9069 26.6101 10.6269 26.3301C10.3478 26.0511 10.2083 25.7049 10.2083 25.2917C10.2083 24.8786 10.3478 24.5324 10.6269 24.2534C10.9069 23.9734 11.2535 23.8334 11.6667 23.8334C12.0799 23.8334 12.4265 23.9734 12.7065 24.2534C12.9855 24.5324 13.125 24.8786 13.125 25.2917C13.125 25.7049 12.9855 26.0511 12.7065 26.3301C12.4265 26.6101 12.0799 26.7501 11.6667 26.7501ZM23.3333 26.7501C22.9201 26.7501 22.574 26.6101 22.295 26.3301C22.015 26.0511 21.875 25.7049 21.875 25.2917C21.875 24.8786 22.015 24.5324 22.295 24.2534C22.574 23.9734 22.9201 23.8334 23.3333 23.8334C23.7465 23.8334 24.0926 23.9734 24.3717 24.2534C24.6517 24.5324 24.7917 24.8786 24.7917 25.2917C24.7917 25.7049 24.6517 26.0511 24.3717 26.3301C24.0926 26.6101 23.7465 26.7501 23.3333 26.7501Z" fill="#EC3542"/>
</svg>
