<svg width="27" height="30" viewBox="0 0 27 30" fill="none" xmlns="http://www.w3.org/2000/svg">
<path d="M3.29167 29.5833C2.48958 29.5833 1.80271 29.2979 1.23104 28.7272C0.660347 28.1556 0.375 27.4687 0.375 26.6666V6.24996C0.375 5.44788 0.660347 4.76149 1.23104 4.19079C1.80271 3.61913 2.48958 3.33329 3.29167 3.33329H4.75V0.416626H7.66667V3.33329H19.3333V0.416626H22.25V3.33329H23.7083C24.5104 3.33329 25.1973 3.61913 25.769 4.19079C26.3397 4.76149 26.625 5.44788 26.625 6.24996V26.6666C26.625 27.4687 26.3397 28.1556 25.769 28.7272C25.1973 29.2979 24.5104 29.5833 23.7083 29.5833H3.29167ZM3.29167 26.6666H23.7083V12.0833H3.29167V26.6666ZM3.29167 9.16663H23.7083V6.24996H3.29167V9.16663ZM13.5 17.9166C13.0868 17.9166 12.7407 17.7766 12.4617 17.4966C12.1817 17.2176 12.0417 16.8715 12.0417 16.4583C12.0417 16.0451 12.1817 15.6985 12.4617 15.4185C12.7407 15.1395 13.0868 15 13.5 15C13.9132 15 14.2598 15.1395 14.5398 15.4185C14.8188 15.6985 14.9583 16.0451 14.9583 16.4583C14.9583 16.8715 14.8188 17.2176 14.5398 17.4966C14.2598 17.7766 13.9132 17.9166 13.5 17.9166ZM7.66667 17.9166C7.25347 17.9166 6.90688 17.7766 6.62688 17.4966C6.34785 17.2176 6.20833 16.8715 6.20833 16.4583C6.20833 16.0451 6.34785 15.6985 6.62688 15.4185C6.90688 15.1395 7.25347 15 7.66667 15C8.07986 15 8.42646 15.1395 8.70646 15.4185C8.98549 15.6985 9.125 16.0451 9.125 16.4583C9.125 16.8715 8.98549 17.2176 8.70646 17.4966C8.42646 17.7766 8.07986 17.9166 7.66667 17.9166ZM19.3333 17.9166C18.9201 17.9166 18.574 17.7766 18.295 17.4966C18.015 17.2176 17.875 16.8715 17.875 16.4583C17.875 16.0451 18.015 15.6985 18.295 15.4185C18.574 15.1395 18.9201 15 19.3333 15C19.7465 15 20.0926 15.1395 20.3717 15.4185C20.6517 15.6985 20.7917 16.0451 20.7917 16.4583C20.7917 16.8715 20.6517 17.2176 20.3717 17.4966C20.0926 17.7766 19.7465 17.9166 19.3333 17.9166ZM13.5 23.75C13.0868 23.75 12.7407 23.61 12.4617 23.33C12.1817 23.0509 12.0417 22.7048 12.0417 22.2916C12.0417 21.8784 12.1817 21.5323 12.4617 21.2533C12.7407 20.9733 13.0868 20.8333 13.5 20.8333C13.9132 20.8333 14.2598 20.9733 14.5398 21.2533C14.8188 21.5323 14.9583 21.8784 14.9583 22.2916C14.9583 22.7048 14.8188 23.0509 14.5398 23.33C14.2598 23.61 13.9132 23.75 13.5 23.75ZM7.66667 23.75C7.25347 23.75 6.90688 23.61 6.62688 23.33C6.34785 23.0509 6.20833 22.7048 6.20833 22.2916C6.20833 21.8784 6.34785 21.5323 6.62688 21.2533C6.90688 20.9733 7.25347 20.8333 7.66667 20.8333C8.07986 20.8333 8.42646 20.9733 8.70646 21.2533C8.98549 21.5323 9.125 21.8784 9.125 22.2916C9.125 22.7048 8.98549 23.0509 8.70646 23.33C8.42646 23.61 8.07986 23.75 7.66667 23.75ZM19.3333 23.75C18.9201 23.75 18.574 23.61 18.295 23.33C18.015 23.0509 17.875 22.7048 17.875 22.2916C17.875 21.8784 18.015 21.5323 18.295 21.2533C18.574 20.9733 18.9201 20.8333 19.3333 20.8333C19.7465 20.8333 20.0926 20.9733 20.3717 21.2533C20.6517 21.5323 20.7917 21.8784 20.7917 22.2916C20.7917 22.7048 20.6517 23.0509 20.3717 23.33C20.0926 23.61 19.7465 23.75 19.3333 23.75Z" fill="white"/>
</svg>
