<svg width="32" height="37" viewBox="0 0 32 37" fill="none" xmlns="http://www.w3.org/2000/svg">
<g filter="url(#filter0_d_74_219)">
<path d="M7.12315 28.1812C6.42568 28.1812 5.8284 27.933 5.3313 27.4368C4.83504 26.9397 4.58691 26.3424 4.58691 25.6449V7.89131C4.58691 7.19385 4.83504 6.59699 5.3313 6.10073C5.8284 5.60363 6.42568 5.35508 7.12315 5.35508H8.39126V2.81885H10.9275V5.35508H21.0724V2.81885H23.6087V5.35508H24.8768C25.5742 5.35508 26.1715 5.60363 26.6686 6.10073C27.1649 6.59699 27.413 7.19385 27.413 7.89131V25.6449C27.413 26.3424 27.1649 26.9397 26.6686 27.4368C26.1715 27.933 25.5742 28.1812 24.8768 28.1812H7.12315ZM7.12315 25.6449H24.8768V12.9638H7.12315V25.6449ZM7.12315 10.4275H24.8768V7.89131H7.12315V10.4275ZM16 18.0362C15.6407 18.0362 15.3397 17.9145 15.0971 17.671C14.8536 17.4284 14.7318 17.1274 14.7318 16.7681C14.7318 16.4088 14.8536 16.1074 15.0971 15.864C15.3397 15.6213 15.6407 15.5 16 15.5C16.3593 15.5 16.6606 15.6213 16.9041 15.864C17.1468 16.1074 17.2681 16.4088 17.2681 16.7681C17.2681 17.1274 17.1468 17.4284 16.9041 17.671C16.6606 17.9145 16.3593 18.0362 16 18.0362ZM10.9275 18.0362C10.5682 18.0362 10.2668 17.9145 10.0233 17.671C9.78069 17.4284 9.65938 17.1274 9.65938 16.7681C9.65938 16.4088 9.78069 16.1074 10.0233 15.864C10.2668 15.6213 10.5682 15.5 10.9275 15.5C11.2868 15.5 11.5882 15.6213 11.8317 15.864C12.0743 16.1074 12.1956 16.4088 12.1956 16.7681C12.1956 17.1274 12.0743 17.4284 11.8317 17.671C11.5882 17.9145 11.2868 18.0362 10.9275 18.0362ZM21.0724 18.0362C20.7131 18.0362 20.4122 17.9145 20.1695 17.671C19.926 17.4284 19.8043 17.1274 19.8043 16.7681C19.8043 16.4088 19.926 16.1074 20.1695 15.864C20.4122 15.6213 20.7131 15.5 21.0724 15.5C21.4317 15.5 21.7327 15.6213 21.9753 15.864C22.2188 16.1074 22.3405 16.4088 22.3405 16.7681C22.3405 17.1274 22.2188 17.4284 21.9753 17.671C21.7327 17.9145 21.4317 18.0362 21.0724 18.0362ZM16 23.1087C15.6407 23.1087 15.3397 22.987 15.0971 22.7435C14.8536 22.5009 14.7318 22.1999 14.7318 21.8406C14.7318 21.4813 14.8536 21.1803 15.0971 20.9377C15.3397 20.6942 15.6407 20.5725 16 20.5725C16.3593 20.5725 16.6606 20.6942 16.9041 20.9377C17.1468 21.1803 17.2681 21.4813 17.2681 21.8406C17.2681 22.1999 17.1468 22.5009 16.9041 22.7435C16.6606 22.987 16.3593 23.1087 16 23.1087ZM10.9275 23.1087C10.5682 23.1087 10.2668 22.987 10.0233 22.7435C9.78069 22.5009 9.65938 22.1999 9.65938 21.8406C9.65938 21.4813 9.78069 21.1803 10.0233 20.9377C10.2668 20.6942 10.5682 20.5725 10.9275 20.5725C11.2868 20.5725 11.5882 20.6942 11.8317 20.9377C12.0743 21.1803 12.1956 21.4813 12.1956 21.8406C12.1956 22.1999 12.0743 22.5009 11.8317 22.7435C11.5882 22.987 11.2868 23.1087 10.9275 23.1087ZM21.0724 23.1087C20.7131 23.1087 20.4122 22.987 20.1695 22.7435C19.926 22.5009 19.8043 22.1999 19.8043 21.8406C19.8043 21.4813 19.926 21.1803 20.1695 20.9377C20.4122 20.6942 20.7131 20.5725 21.0724 20.5725C21.4317 20.5725 21.7327 20.6942 21.9753 20.9377C22.2188 21.1803 22.3405 21.4813 22.3405 21.8406C22.3405 22.1999 22.2188 22.5009 21.9753 22.7435C21.7327 22.987 21.4317 23.1087 21.0724 23.1087Z" fill="white"/>
</g>
<defs>
<filter id="filter0_d_74_219" x="-3.21729" y="0.282715" width="38.4346" height="38.4348" filterUnits="userSpaceOnUse" color-interpolation-filters="sRGB">
<feFlood flood-opacity="0" result="BackgroundImageFix"/>
<feColorMatrix in="SourceAlpha" type="matrix" values="0 0 0 0 0 0 0 0 0 0 0 0 0 0 0 0 0 0 127 0" result="hardAlpha"/>
<feOffset dy="4"/>
<feGaussianBlur stdDeviation="2"/>
<feComposite in2="hardAlpha" operator="out"/>
<feColorMatrix type="matrix" values="0 0 0 0 0 0 0 0 0 0 0 0 0 0 0 0 0 0 0.25 0"/>
<feBlend mode="normal" in2="BackgroundImageFix" result="effect1_dropShadow_74_219"/>
<feBlend mode="normal" in="SourceGraphic" in2="effect1_dropShadow_74_219" result="shape"/>
</filter>
</defs>
</svg>
