<svg width="106" height="95" viewBox="0 0 106 95" fill="none" xmlns="http://www.w3.org/2000/svg">
<path d="M53 0L67.6417 29.4387L103.406 32.8217L76.6908 54.3988L84.1526 85.9283L53 69.825L21.8474 85.9283L29.3092 54.3988L2.59401 32.8217L38.3583 29.4387L53 0Z" fill="#EC3542"/>
<path d="M36.4081 58.216C34.6081 58.216 32.8921 57.928 31.2601 57.352C29.6281 56.752 28.3321 55.96 27.3721 54.976L28.6321 52.924C29.4241 53.764 30.5041 54.46 31.8721 55.012C33.2641 55.564 34.7641 55.84 36.3721 55.84C38.5081 55.84 40.1281 55.372 41.2321 54.436C42.3601 53.476 42.9241 52.228 42.9241 50.692C42.9241 49.612 42.6601 48.688 42.1321 47.92C41.6281 47.128 40.7641 46.516 39.5401 46.084C38.3161 45.652 36.6361 45.436 34.5001 45.436H29.1361L30.4321 32.8H44.2201V35.104H31.4761L32.8081 33.844L31.6921 44.428L30.3601 43.132H35.0761C37.6201 43.132 39.6601 43.444 41.1961 44.068C42.7321 44.692 43.8361 45.568 44.5081 46.696C45.2041 47.8 45.5521 49.096 45.5521 50.584C45.5521 52 45.2161 53.296 44.5441 54.472C43.8721 55.624 42.8641 56.536 41.5201 57.208C40.1761 57.88 38.4721 58.216 36.4081 58.216ZM46.0707 61.6L57.9507 27.688H60.2907L48.4107 61.6H46.0707ZM68.8573 58.216C67.0573 58.216 65.3413 57.928 63.7093 57.352C62.0773 56.752 60.7813 55.96 59.8213 54.976L61.0813 52.924C61.8733 53.764 62.9533 54.46 64.3213 55.012C65.7133 55.564 67.2133 55.84 68.8213 55.84C70.9573 55.84 72.5773 55.372 73.6813 54.436C74.8093 53.476 75.3733 52.228 75.3733 50.692C75.3733 49.612 75.1093 48.688 74.5813 47.92C74.0773 47.128 73.2133 46.516 71.9893 46.084C70.7653 45.652 69.0853 45.436 66.9493 45.436H61.5853L62.8813 32.8H76.6693V35.104H63.9253L65.2573 33.844L64.1413 44.428L62.8093 43.132H67.5253C70.0693 43.132 72.1093 43.444 73.6453 44.068C75.1813 44.692 76.2853 45.568 76.9573 46.696C77.6533 47.8 78.0013 49.096 78.0013 50.584C78.0013 52 77.6653 53.296 76.9933 54.472C76.3213 55.624 75.3133 56.536 73.9693 57.208C72.6253 57.88 70.9213 58.216 68.8573 58.216Z" fill="white"/>
</svg>
