<svg width="52" height="35" viewBox="0 0 52 35" fill="none" xmlns="http://www.w3.org/2000/svg">
<path d="M9.40808 31.216C7.60808 31.216 5.89208 30.928 4.26008 30.352C2.62808 29.752 1.33208 28.96 0.372078 27.976L1.63208 25.924C2.42408 26.764 3.50408 27.46 4.87208 28.012C6.26408 28.564 7.76408 28.84 9.37208 28.84C11.5081 28.84 13.1281 28.372 14.2321 27.436C15.3601 26.476 15.9241 25.228 15.9241 23.692C15.9241 22.612 15.6601 21.688 15.1321 20.92C14.6281 20.128 13.7641 19.516 12.5401 19.084C11.3161 18.652 9.63608 18.436 7.50008 18.436H2.13608L3.43208 5.8H17.2201V8.104H4.47608L5.80808 6.844L4.69208 17.428L3.36008 16.132H8.07608C10.6201 16.132 12.6601 16.444 14.1961 17.068C15.7321 17.692 16.8361 18.568 17.5081 19.696C18.2041 20.8 18.5521 22.096 18.5521 23.584C18.5521 25 18.2161 26.296 17.5441 27.472C16.8721 28.624 15.8641 29.536 14.5201 30.208C13.1761 30.88 11.4721 31.216 9.40808 31.216ZM19.0707 34.6L30.9507 0.687998H33.2907L21.4107 34.6H19.0707ZM41.8573 31.216C40.0573 31.216 38.3413 30.928 36.7093 30.352C35.0773 29.752 33.7813 28.96 32.8213 27.976L34.0813 25.924C34.8733 26.764 35.9533 27.46 37.3213 28.012C38.7133 28.564 40.2133 28.84 41.8213 28.84C43.9573 28.84 45.5773 28.372 46.6813 27.436C47.8093 26.476 48.3733 25.228 48.3733 23.692C48.3733 22.612 48.1093 21.688 47.5813 20.92C47.0773 20.128 46.2133 19.516 44.9893 19.084C43.7653 18.652 42.0853 18.436 39.9493 18.436H34.5853L35.8813 5.8H49.6693V8.104H36.9253L38.2573 6.844L37.1413 17.428L35.8093 16.132H40.5253C43.0693 16.132 45.1093 16.444 46.6453 17.068C48.1813 17.692 49.2853 18.568 49.9573 19.696C50.6533 20.8 51.0013 22.096 51.0013 23.584C51.0013 25 50.6653 26.296 49.9933 27.472C49.3213 28.624 48.3133 29.536 46.9693 30.208C45.6253 30.88 43.9213 31.216 41.8573 31.216Z" fill="white"/>
</svg>
